PathFileType	4	(X/Y/Z)	Patient4_TMGait_0pt7_01_right_49.trc.trc
DataRate	CameraRate	NumFrames	NumMarkers	Units	OrigDataRate	OrigDataStartFrame	OrigNumFrames
85.365853658537	85.365853658537	6	33	mm	85.365853658537	71	       141
Frame#	Time	Sacral			L.Shoulder			Chest			R.Shoulder			Neck			R.ASIS			L.ASIS			R.Thigh.Superior			R.Thigh.Lateral			R.Thigh.Inferior			R.Patella			L.Thigh.Superior			L.Thigh.Lateral			L.Thigh.Inferior			L.Patella			L.Shank.Superior			L.Shank.Lateral			L.Shank.Inferior			R.Shank.Superior			R.Shank.Lateral			R.Shank.Inferior			R.Heel			R.Midfoot.Superior			R.Midfoot.Lateral			R.Toe			L.Heel			L.Midfoot.Lateral			L.Midfoot.Superior			L.Toe			L.Elbow			L.Wrist			R.Elbow			R.Wrist			
		X1	Y1	Z1	X2	Y2	Z2	X3	Y3	Z3	X4	Y4	Z4	X5	Y5	Z5	X6	Y6	Z6	X7	Y7	Z7	X8	Y8	Z8	X9	Y9	Z9	X10	Y10	Z10	X11	Y11	Z11	X12	Y12	Z12	X13	Y13	Z13	X14	Y14	Z14	X15	Y15	Z15	X16	Y16	Z16	X17	Y17	Z17	X18	Y18	Z18	X19	Y19	Z19	X20	Y20	Z20	X21	Y21	Z21	X22	Y22	Z22	X23	Y23	Z23	X24	Y24	Z24	X25	Y25	Z25	X26	Y26	Z26	X27	Y27	Z27	X28	Y28	Z28	X29	Y29	Z29	X30	Y30	Z30	X31	Y31	Z31	X32	Y32	Z32	X33	Y33	Z33	

71	57.190000000000	848.360654355532	1004.284621591773	535.310061107831	1038.273824281567	1415.534924084569	334.633711477316	1154.432289189739	1333.990103874209	481.801328960891	1101.656673789497	1421.832490620585	661.258727638757	1066.434344478791	1475.187879042040	487.043394974005	1075.822408059465	927.814393964269	640.950595507382	1048.125958133568	938.341544926563	365.279701803129	1065.605715609705	715.165251507330	614.935329540120	956.827741081835	625.895581034615	676.025752025979	1013.380875025418	558.107997313162	595.249633399726	990.435229263751	474.307712526987	598.279790802294	1120.027716726785	766.472318567664	396.508028675169	1076.770856795956	637.996252543977	311.912422272032	1182.016130050730	581.729139800274	372.898952308554	1212.164369070659	519.841536846120	367.293309560456	1199.353562576943	447.547594837335	355.099951246673	1139.999091591299	314.206126550704	304.885898951020	1235.693374096481	220.481660766106	355.184204149327	949.791181365867	391.635759549479	604.784110878753	865.072084544693	298.918799997624	666.982285187904	890.139470481642	200.297797682101	600.563808735896	736.628481706253	44.041648502046	569.525459312371	908.968225555605	95.935876981050	604.415092557011	819.977059198737	36.903628095957	643.792959668032	1028.658628067537	40.697817290873	632.173175077598	1164.728891653804	38.415199656426	392.125542657459	1238.330422669383	46.510030352173	311.940381764083	1305.908438504218	125.491118649369	333.769645157000	1440.499266801734	100.637921963403	307.766185763439	857.326107946666	1116.440739352855	239.592213694412	785.960824849231	865.600196207171	242.336621413720	1243.143252163670	1124.000503993685	780.859661308501	1451.280674241615	1204.336324201576	665.472009982459	
72	57.201714285714	850.645873072263	1002.332437343909	533.379042735053	1038.074558697607	1414.427814001765	332.583145617472	1154.730736579125	1333.668980543034	479.731865703312	1101.303960092319	1420.995049503272	659.228836571478	1065.934521051195	1474.173707779834	484.950863767569	1078.212471479330	926.275877332609	638.934567288406	1050.449017103404	936.880569149577	363.355082024619	1067.006812786816	713.337464460527	612.954266966009	957.429794127223	624.715454216067	674.349099183399	1013.158767015232	556.385698228335	593.599625330024	989.083422867415	472.344090283408	596.501556639523	1122.255026904681	763.649375575645	394.175652628132	1075.867040179347	634.628176892985	311.985475581528	1181.696023366917	578.437163666585	371.789171149950	1210.669262829717	516.148511438947	367.218431186686	1197.841142726749	443.871120801917	355.366286011536	1137.440064650824	310.575827557876	306.801861702634	1232.975114840524	216.859612679753	357.041563906517	947.121677052157	390.202295420888	603.444947993214	861.248141951525	298.976273310668	666.306028586149	884.214359469860	199.809526854900	600.042958768316	728.542155062470	44.918604170060	569.750058165908	901.102872399124	95.990889093417	604.367661211048	811.925052111618	37.191500024206	643.883730476521	1020.540032837705	40.286770050034	632.245799667107	1159.925140167019	37.570501236288	395.175647290610	1233.165825587745	43.995212890120	314.493151952539	1302.978953359597	120.481166418645	336.425339864873	1436.604077878262	91.802499066458	309.581435360940	855.402602154583	1116.728304052840	238.524086274006	781.507492776345	866.543561578395	241.619131793113	1245.605290758700	1124.124483190949	777.075231230786	1448.832908787691	1212.902191471204	660.135377636693	
73	57.213428571429	853.083673107681	1000.581871304501	531.367529206524	1037.961943125537	1413.460848732120	330.409293345434	1155.159455732251	1333.540908723571	477.547558208840	1101.088146489881	1420.330093452647	657.105764630311	1065.533491144815	1473.344251268489	482.720692614810	1080.684448409068	924.816227463072	636.765892768324	1052.854433275008	935.702487007449	361.348613786783	1068.506305156557	711.635944031764	610.914812977057	958.148114947275	623.674036774268	672.580187280656	1013.216683775185	554.753101448860	591.972996167460	988.055129150761	470.403019290103	594.768014486855	1124.781427422691	761.310835969335	391.686023924526	1075.494451075040	631.830317155856	311.938709691331	1181.880872789642	575.753067910024	370.727048526710	1209.599677641640	512.838137503443	367.256175730412	1196.615334074502	440.470953512991	355.650110319814	1134.920807583525	307.519461291133	308.218559521089	1229.598820281801	213.348548983620	358.731020695802	944.703363702351	388.875982574222	602.123336340895	857.534940102850	299.268464746653	665.622359633770	878.414436578741	199.536988211894	599.612836395860	720.507997392511	46.198866744847	570.052267326144	893.376242279068	96.140211118453	604.394833046042	803.925560051856	37.659409112844	644.007941740718	1012.450673934644	39.843917781639	632.325723316015	1153.422769664491	37.126848656161	397.549730474475	1226.583816604218	41.741842713790	316.600215136858	1298.879183856155	115.401179832677	339.027414938025	1431.515054157707	82.367163249848	311.724823468136	854.151789707461	1116.684818373642	237.381301901044	778.336832563015	867.019731533417	240.728719847883	1247.370148654972	1123.878338035631	773.412997374054	1445.829009703998	1220.167680269045	655.106299666662	
74	57.225142857143	855.595169533436	999.129081295280	529.280884388856	1037.968992268126	1412.688709103716	328.138294489049	1155.738806556209	1333.613139712506	475.261117405377	1101.082405819333	1419.869073127020	654.905616861176	1065.295668811535	1472.744777427350	480.380208555154	1083.167074567185	923.500763633082	634.449788577821	1055.269267479890	934.867676341544	359.252699818235	1070.036757087328	710.136298310641	608.833543176843	958.948044495867	622.832282085871	670.737204464725	1013.536616696550	553.280496435793	590.381943343458	987.379119268517	468.524299859775	593.135273428318	1127.514141440638	759.567141335073	389.126460581079	1075.737680362965	629.769161716019	311.658786384072	1182.561910982502	573.786078294433	369.691279423643	1208.980532620428	510.072184958018	367.304272249596	1195.739609529709	437.518663485658	355.848072508665	1132.639444191750	305.162288776353	308.974147536477	1225.815069988763	210.147307597542	360.122409013858	942.545788035490	387.704180102481	600.859212258234	853.938047829539	299.848172421179	664.957192620386	872.762466718401	199.535718536422	599.301221704985	712.544001346151	47.973540787731	570.443704766010	885.823377233296	96.402407388571	604.527814855790	795.986170717766	38.354306691592	644.180954344609	1004.391955865195	39.388979879073	632.407329522643	1145.777949448764	37.010286672675	399.188328737493	1219.093727453272	39.844722350943	318.175170185883	1293.874807017800	110.619117620197	341.383190193238	1425.572213236783	73.131986292342	313.975662477811	853.596940915806	1116.353268951117	236.145784869135	776.492971147240	867.044696269846	239.646135609576	1248.446481821307	1123.248310219654	769.916549628532	1442.424910184553	1226.071515715835	650.389324001758	
75	57.236857142857	858.095968536342	998.067726679001	527.118358093662	1038.125830827731	1412.170315288893	325.798621595661	1156.482216849959	1333.894943623793	472.887228185302	1101.350220588070	1419.647579020302	652.643511560857	1065.279150342125	1472.420507210136	477.961226953761	1085.593624181124	922.402788601276	631.988307159620	1057.626517615201	934.430666041724	357.049503466824	1071.555887989372	708.918119673724	606.715577181356	959.833602296232	622.242925859671	668.837409921528	1014.133700619387	552.038222099729	588.830540407360	987.119634099722	466.745492205866	591.664081077987	1130.361857106320	758.514914625563	386.588488098234	1076.652199618333	628.568828162408	311.058799459924	1183.704548035441	572.599759737966	368.645568773197	1208.804622850041	507.959513801869	367.244646343457	1195.224127190600	435.131253756661	355.875707018829	1130.686195985936	303.578643727758	308.995017080726	1221.780692057261	207.407047723788	361.137646108028	940.687393084826	386.729901318348	599.699101412661	850.493437093477	300.767108586490	664.337359842853	867.303527792109	199.856985947977	599.136235868782	704.678272254452	50.333686549505	570.933614098612	878.488182779968	96.792173773667	604.799041462497	788.118965369427	39.321358164214	644.414446337409	996.365787907180	38.942960791874	632.483912550778	1137.458420559567	37.133513845187	400.127655775532	1211.088645598172	38.358787716788	319.203028748747	1288.147055209181	106.440721021271	343.342372213407	1419.015668947354	64.796661437414	316.103482804539	853.756665104084	1115.794843172536	234.802838486858	776.013657693867	866.653907535702	238.356596978015	1248.832036730428	1122.247976902678	766.618085208710	1438.773445644833	1230.564376294207	645.983855102758	
76	57.248571428571	860.510872973869	997.473504268649	524.872314190529	1038.456626686532	1411.962242053490	323.418603284642	1157.394533676991	1334.395244393747	470.441261381826	1101.937489520891	1419.699681953723	650.332095497282	1065.528471397795	1472.410144025530	475.497893131282	1087.907982051800	921.595829985088	629.380103825903	1059.874633194823	934.431714904285	354.711700737995	1073.049672391265	708.054881664370	604.558197198398	960.844013070004	621.943133672346	666.897420905931	1015.056589563129	551.086508648516	587.320570472310	987.370773567801	465.096923402624	590.420009802187	1133.238361453445	758.212880653203	384.153657279037	1078.236056120616	628.279638769385	310.096534071463	1185.232414124582	572.185207815010	367.552993419844	1209.016344652073	506.530514359878	366.981997267806	1195.015304241248	433.352421991705	355.690708230505	1129.042711876859	302.771595489437	308.310988897157	1217.564249285729	205.211040784490	361.763582993255	939.193670450979	385.986603976339	598.695182547541	847.264177894115	302.071148025596	663.787627659992	862.103043486200	200.543128443508	599.144908658723	696.950384455273	53.364429834475	571.527326737695	871.420549657564	97.317928247556	605.237909082629	780.341169637433	40.602736778556	644.714887596520	988.373875049415	38.526520094117	632.548132008646	1128.819829731909	37.405456596675	400.474051649093	1202.842608481372	37.293955115368	319.731570224040	1281.817626173062	103.066049129529	344.822688946427	1412.005702504771	57.858664155527	317.919202276031	854.638212159941	1115.085953858722	233.339332696641	776.930703655020	865.899932243219	236.851256850329	1248.513860084473	1120.919135527472	763.537249305374	1435.019830149127	1233.607295471649	641.885980589813	
